<svg xmlns="http://www.w3.org/2000/svg" viewBox="0 0 25 25" >
<g style="fill:var(--color-white);">
	<path d="M24.6,12.8c-0.3-0.5-0.9-0.7-1.7-0.7h-2.5V8.9c0-0.9-0.7-1.7-1.7-1.7H17v1h1.8c0.4,0,0.7,0.3,0.7,0.7v3.2H7
		c-1.2,0-2.5,0.7-2.9,1.5l-2.9,6.2V8.9c0-0.4,0.3-0.7,0.7-0.7h10.7v-1h-3C9.4,5.9,8.2,4.9,6.8,4.9H3c-1.6,0-2.8,1.3-2.8,2.8v1.5
		c0,0,0,0.1,0,0.1c0,0,0-0.1,0-0.1V22c0,0.1,0,0.1,0,0.2c0,0.3,0,0.5,0.2,0.8c0.2,0.3,0.4,0.5,0.8,0.6c0.2,0.1,0.4,0.2,0.7,0.2h0.2
		H18h0.8c0.5,0,1-0.2,1.3-0.6c0.4-0.3,0.7-0.6,0.9-0.9l3.7-8.1C24.8,13.6,24.8,13.2,24.6,12.8z M2.1,22.7c-0.2,0-0.4,0-0.5-0.1
		c-0.2-0.1-0.3-0.2-0.3-0.4c0,0,0,0,0,0L5,14c0.2-0.4,1.1-0.9,2-0.9h12.4V22c0,0.1,0,0.2-0.1,0.3c-0.4,0.2-0.8,0.3-1.3,0.3H2.1z
		 M23.7,13.6l-3.3,7.2v-7.7h2.5c0.5,0,0.8,0.1,0.8,0.3C23.8,13.4,23.8,13.5,23.7,13.6z"/>
	<path d="M14.4,3v7.1h1V3l2.4,2.3l0.7-0.7l-3.3-3.1c-0.2-0.2-0.5-0.2-0.7,0l-3.3,3.1L12,5.3L14.4,3z"/>
</g>
</svg>
