<svg xmlns="http://www.w3.org/2000/svg" viewBox="0 0 60 45">
	<style type="text/css">
		.st0{fill:#FFFFFF;}
		.st1{fill:#27BCEE;}
		.st2{fill:none;stroke:#27BCEE;stroke-miterlimit:10;}
	</style>
	<path class="st0" d="M59,1v43H1V1H59 M60,0H0v45h60V0L60,0z"/>
	<path class="st1" d="M12.4,2.5v40h-10v-40H12.4 M13.4,1.5h-12v42h12V1.5L13.4,1.5z"/>
	<polyline class="st2" points="7.9,26.2 4.2,22.5 7.9,18.8 "/>
	<line class="st2" x1="10.5" y1="22.5" x2="4.2" y2="22.5"/>
	<path class="st1" d="M57.6,2.6v39.7h-10V2.6H57.6 M58.6,1.5h-12v42h12V1.5L58.6,1.5z"/>
	<polyline class="st2" points="51.7,18.8 55.4,22.5 51.7,26.2 "/>
	<line class="st2" x1="49.1" y1="22.5" x2="55.4" y2="22.5"/>
</svg>