<svg xmlns="http://www.w3.org/2000/svg" viewBox="0 0 25 25">
	<g style="fill:var(--color-white)">
		<path d="M15.7,24.8H9.3v-3.8c-0.9-0.3-1.8-0.8-2.5-1.5l-3.3,1.9l-3.2-5.5L3.6,14c-0.1-0.5-0.1-1-0.1-1.5s0-1,0.1-1.5
			L0.3,9.1l3.2-5.5l3.3,1.9c0.8-0.6,1.6-1.1,2.5-1.5V0.2h6.4v3.8c0.9,0.3,1.8,0.8,2.5,1.5l3.3-1.9l3.2,5.5L21.4,11
			c0.1,0.5,0.1,1,0.1,1.5s0,1-0.1,1.5l3.3,1.9l-3.2,5.5l-3.3-1.9c-0.8,0.6-1.6,1.1-2.5,1.5V24.8z M10.3,23.8h4.4v-3.5l0.3-0.1
			c1-0.3,2-0.9,2.8-1.6l0.3-0.2l3.1,1.8l2.2-3.8l-3-1.8l0.1-0.4c0.1-0.5,0.2-1.1,0.2-1.6c0-0.5-0.1-1.1-0.2-1.6l-0.1-0.4l3-1.8
			L21.2,5l-3.1,1.8l-0.3-0.2C17,5.8,16.1,5.2,15,4.9l-0.3-0.1V1.2h-4.4v3.5L10,4.9c-1,0.3-2,0.9-2.8,1.6L6.9,6.7L3.8,5L1.7,8.8
			l3,1.8l-0.1,0.4c-0.1,0.5-0.2,1.1-0.2,1.6c0,0.5,0.1,1.1,0.2,1.6l0.1,0.4l-3,1.8L3.8,20l3.1-1.8l0.3,0.2c0.8,0.7,1.8,1.3,2.8,1.6
			l0.3,0.1V23.8z"/>

		<path d="M12.5,16.5c-2.2,0-4-1.8-4-4s1.8-4,4-4s4,1.8,4,4S14.7,16.5,12.5,16.5z M12.5,9.5c-1.6,0-3,1.3-3,3
			c0,1.6,1.3,3,3,3c1.6,0,3-1.3,3-3C15.5,10.9,14.1,9.5,12.5,9.5z"/>
	</g>
</svg>
