<svg xmlns="http://www.w3.org/2000/svg" viewBox="0 0 25 25" >
	<g style="fill:var(--color-white)">
		<path d="M8.8,1.7c1.2,0,2.1,1,2.1,2.1v5c0,1.2-1,2.1-2.1,2.1h-5c-1.2,0-2.1-1-2.1-2.1v-5c0-1.2,1-2.1,2.1-2.1H8.8
			M8.8,0.7h-5c-1.7,0-3.1,1.4-3.1,3.1v5c0,1.7,1.4,3.1,3.1,3.1h5c1.7,0,3.1-1.4,3.1-3.1v-5C11.9,2.1,10.5,0.7,8.8,0.7L8.8,0.7z"/>
		<path d="M21.2,1.7c1.2,0,2.1,1,2.1,2.1v5c0,1.2-1,2.1-2.1,2.1h-5c-1.2,0-2.1-1-2.1-2.1v-5c0-1.2,1-2.1,2.1-2.1H21.2
			M21.2,0.7h-5c-1.7,0-3.1,1.4-3.1,3.1v5c0,1.7,1.4,3.1,3.1,3.1h5c1.7,0,3.1-1.4,3.1-3.1v-5C24.3,2.1,22.9,0.7,21.2,0.7L21.2,0.7z"/>
		<path d="M21.2,14.1c1.2,0,2.1,1,2.1,2.1v5c0,1.2-1,2.1-2.1,2.1h-5c-1.2,0-2.1-1-2.1-2.1v-5c0-1.2,1-2.1,2.1-2.1H21.2
			M21.2,13.1h-5c-1.7,0-3.1,1.4-3.1,3.1v5c0,1.7,1.4,3.1,3.1,3.1h5c1.7,0,3.1-1.4,3.1-3.1v-5C24.3,14.5,22.9,13.1,21.2,13.1
			L21.2,13.1z"/>
		<path d="M8.8,14.1c1.2,0,2.1,1,2.1,2.1v5c0,1.2-1,2.1-2.1,2.1h-5c-1.2,0-2.1-1-2.1-2.1v-5c0-1.2,1-2.1,2.1-2.1H8.8
			M8.8,13.1h-5c-1.7,0-3.1,1.4-3.1,3.1v5c0,1.7,1.4,3.1,3.1,3.1h5c1.7,0,3.1-1.4,3.1-3.1v-5C11.9,14.5,10.5,13.1,8.8,13.1L8.8,13.1z"/>
	</g>
</svg>