<svg xmlns="http://www.w3.org/2000/svg" viewBox="0 0 25 25">
	<path style="fill:var(--color-white)" d="M21.5,8c-1.4-2.5-3.6-4.3-6.3-5.1C12.4,2.2,9.5,2.5,7,3.8C5.5,4.7,4.2,5.9,3.2,7.4V1.8h-1v7.5h7.5v-1H3.9
		C4.8,6.8,6,5.5,7.5,4.7c2.3-1.2,4.8-1.5,7.3-0.8c2.5,0.7,4.5,2.4,5.7,4.6s1.5,4.8,0.8,7.3c-0.7,2.5-2.4,4.5-4.6,5.7
		c-4,2.2-9.1,1.2-12-2.3c-0.4-0.5-0.8-1-1.1-1.5l-0.9,0.5c0.3,0.6,0.7,1.2,1.2,1.7c2.1,2.5,5.1,3.8,8.2,3.8c1.7,0,3.5-0.4,5.1-1.3
		c2.5-1.4,4.3-3.6,5.1-6.3S22.8,10.5,21.5,8z"/>
</svg>
