<svg xmlns="http://www.w3.org/2000/svg" viewBox="0 0 25 25">
	<path style="fill:var(--color-white)" d="M23.5,4.8l-3-3.2C20.1,1.2,19.7,1,19.2,1h-1.2H6.9H2.8C1.8,1,1,1.8,1,3v19c0,1,0.9,2,1.8,2H6h13.2h3c1,0,1.8-0.8,1.8-2V6.2
	C24.1,5.7,23.9,5.1,23.5,4.8z M12,2h5v5h-5C12,7,12,2,12,2z M7,23v-6h11v6H7z M23,22c0,0.6-0.4,1-0.8,1H19v-7H6v7H2.8
	C2.4,23,2,22.5,2,22V3c0-0.6,0.4-1,0.8-1H7v6h11V2h1.2c0.2,0,0.5,0.1,0.5,0.3l3,3.2C22.9,5.7,23,5.9,23,6.2C23,6.2,23,22,23,22z
	 M7,23v-6h11v6 M19,23v-7H6v7"/>
</svg>