<svg xmlns="http://www.w3.org/2000/svg" viewBox="0 0 25 25">
	<g style="fill:var(--color-white);">
		<polygon points="17,14 17,15 17.5,15 18,15 18,14 17.5,14 	"/>
		<polygon points="10,4.5 10,4 9,4 9,4.5 9,5 10,5 	"/>
		<rect x="9" y="2" width="1" height="1"/>
		<rect x="9" width="1" height="1"/>
		<rect x="19" width="1" height="1"/>
		<rect x="11" width="1" height="1"/>
		<rect x="21" width="1" height="1"/>
		<rect x="13" width="1" height="1"/>
		<rect x="15" width="1" height="1"/>
		<rect x="17" width="1" height="1"/>
		<rect x="23" width="1" height="1"/>
		<rect x="23" y="6" width="1" height="1"/>
		<rect x="23" y="8" width="1" height="1"/>
		<rect x="23" y="4" width="1" height="1"/>
		<rect x="23" y="2" width="1" height="1"/>
		<rect x="23" y="12" width="1" height="1"/>
		<rect x="23" y="10" width="1" height="1"/>
		<rect x="23" y="14" width="1" height="1"/>
		<rect x="19" y="14" width="1" height="1"/>
		<rect x="21" y="14" width="1" height="1"/>
		<polygon points="8.3,14.2 11.9,19.5 15.4,24.9 16.4,19.4 21,16.2 14.7,15.2 	"/>
		<polygon points="2,21 2,8 15,8 15,13 15.1,13 16,13.1 16,7 1,7 1,22 11.2,22 10.5,21 	"/>
	</g>
</svg>