<svg xmlns="http://www.w3.org/2000/svg" viewBox="0 0 25 25">
<path style="fill:var(--color-white)" d="M24.1,4.3l-3.2-3.4c-0.4-0.4-0.8-0.6-1.4-0.6h-1.3H6.5H2.2c-1.1,0-1.9,0.9-1.9,2.1v20.2c0,1.1,0.9,2.1,1.9,2.1
	h3.4h13.9h3.2c1.1,0,1.9-0.9,1.9-2.1V5.8C24.7,5.3,24.5,4.7,24.1,4.3z M12.3,1.3h4.9v5.5h-4.9V1.3z M6.6,23.7v-6.9h11.9v6.9H6.6z
	 M23.7,22.6c0,0.6-0.4,1.1-0.9,1.1h-3.2v-7.9H5.6v7.9H2.2c-0.5,0-0.9-0.5-0.9-1.1V2.4c0-0.6,0.4-1.1,0.9-1.1h4.2v6.5h11.8V1.3h1.3
	c0.2,0,0.5,0.1,0.6,0.3L23.4,5c0.2,0.2,0.3,0.5,0.3,0.8V22.6z"/>
</svg>
