<svg xmlns="http://www.w3.org/2000/svg" viewBox="0 0 25 25" >
	<g style="fill:var(--color-white);">
		<path d="M24.2,12.7c-0.3-0.5-0.9-0.7-1.7-0.7H20V8.7C20,7.8,19.4,7,18.5,7H17v1h1.2c0.4,0.2,0.7,0.5,0.8,0.9V12H6.6
			c-1.2,0-2.4,0.7-2.8,1.5L1,19.9V8.7C1,8.3,1.3,8,1.7,8H12V7H9.3C9.1,5.9,7.9,4.9,6.6,5H2.9C1.4,4.9,0,7.7,0,7.7V9v0.1V9v13.1
			c0,0.1,0,0.1,0,0.2c0,0.3,0,0.5,0.2,0.8s0.4,0.5,0.8,0.6C1.2,23.9,1.4,24,1.7,24h0.2h15.8h0.8c0.5,0,1-0.2,1.3-0.6
			c0.4-0.3,0.7-0.6,0.9-0.9l3.7-8.3C24.4,13.5,24.4,13.1,24.2,12.7z M2,22.1c-0.2,0-0.4,0-0.5-0.1c-0.2-0.1-0.3-0.2-0.3-0.4l0,0
			l3.6-7.8C5,13.5,5.9,13,6.8,13H19v8.4c0,0.1,0,0.2-0.1,0.3c-0.4,0.2-0.8,0.3-1.3,0.3L2,22.1L2,22.1z M23.2,13.5L20,20.7V13h2.4
			c0.5,0,0.8,0.1,0.8,0.3C23.3,13.3,23.3,13.4,23.2,13.5z"/>
		<path d="M14,2.9V10h1V2.9l2.4,2.3l0.7-0.7l-3.3-3.1c-0.2-0.2-0.5-0.2-0.7,0l-3.3,3.1l0.8,0.7L14,2.9z"/>
	</g>
</svg>