<svg xmlns="http://www.w3.org/2000/svg" viewBox="0 0 25 25">
	<g style="fill:var(--color-white)">
		<path d="M16,24H9v-3.6c-0.8-0.3-1.7-0.7-2.3-1.4l-3.1,1.8l-3-5.1l3.1-1.8c-0.1-0.5-0.1-0.9-0.1-1.4s0-0.9,0.1-1.4L0.6,9.3l3-5.1
			L6.7,6c0.8-0.6,1.5-1,2.3-1.4V1h7v3.6c0.8,0.3,1.7,0.7,2.3,1.4l3.1-1.8l3,5.1l-3.1,1.8c0.1,0.5,0.1,0.9,0.1,1.4s0,0.9-0.1,1.4
			l3.1,1.8l-3,5.1L18.3,19c-0.8,0.6-1.5,1-2.3,1.4C16,20.4,16,24,16,24z M10,23h5v-3.3l0.3-0.1c0.9-0.3,1.8-0.8,2.5-1.5l0.3-0.2
			l2.8,1.7l2-3.5l-2.7-1.7l0.1-0.4c0.1-0.5,0.2-1,0.2-1.5s-0.1-1-0.2-1.5l-0.1-0.4l2.7-1.7l-2-3.5l-2.8,1.7L17.8,7
			c-0.7-0.7-1.5-1.3-2.5-1.6L15,5.3V2h-5v3.3L9.7,5.4C8.8,5.7,7.9,6.3,7.2,6.9L6.9,7.1L4.1,5.5L2.2,9.1l2.7,1.7l-0.1,0.4
			c-0.1,0.5-0.2,1-0.2,1.5c0,0.5,0.1,1,0.2,1.5l0.1,0.4l-2.7,1.7l1.9,3.3l2.8-1.7L7.2,18c0.7,0.7,1.6,1.2,2.5,1.5l0.3,0.1V23z"/>

		<path d="M12.5,16C10.6,16,9,14.4,9,12.5S10.6,9,12.5,9s3.5,1.6,3.5,3.5S14.4,16,12.5,16z M12.5,9.8c-1.5,0-2.7,1.2-2.7,2.7
			s1.2,2.7,2.7,2.7s2.7-1.2,2.7-2.7S14,9.8,12.5,9.8z"/>
	</g>
</svg>