<svg xmlns="http://www.w3.org/2000/svg" viewBox="0 0 25 25">
	<path style="fill:var(--color-white)" d="M3.6,8c1.4-2.5,3.6-4.3,6.3-5.1c2.7-0.8,5.6-0.5,8.1,0.9c1.6,0.9,2.9,2.1,3.8,3.6V1.8h1v7.5h-7.5v-1h5.8
		c-0.9-1.5-2.1-2.7-3.6-3.5c-2.3-1.2-4.8-1.5-7.3-0.8C7.7,4.6,5.7,6.3,4.4,8.5s-1.5,4.8-0.8,7.3c0.7,2.5,2.4,4.5,4.6,5.7
		c4,2.2,9.1,1.2,12-2.3c0.4-0.5,0.8-1,1.1-1.5l0.9,0.5c-0.3,0.6-0.7,1.2-1.2,1.7c-2.1,2.5-5.1,3.8-8.2,3.8c-1.7,0-3.5-0.4-5.1-1.3
		c-2.5-1.4-4.3-3.6-5.1-6.3S2.2,10.5,3.6,8z"/>
</svg>