<?xml version="1.0" encoding="utf-8"?>
<!-- Generator: Adobe Illustrator 25.0.0, SVG Export Plug-In . SVG Version: 6.00 Build 0)  -->
<svg version="1.1" id="圖層_1" xmlns="http://www.w3.org/2000/svg" xmlns:xlink="http://www.w3.org/1999/xlink" x="0px" y="0px"
	 viewBox="0 0 25 25" style="enable-background:new 0 0 25 25;" xml:space="preserve">
<style type="text/css">
	.st0{fill:#040000;}
</style>
<g>
	<path class="st0" d="M22.9,1.6h-5.8v1h4.6l-6.2,6.2l0.7,0.7l6.2-6.2v4.6h1V2.1C23.4,1.9,23.1,1.6,22.9,1.6z"/>
	<path class="st0" d="M8.8,15.4l-6.2,6.2v-4.6h-1v5.8c0,0.3,0.2,0.5,0.5,0.5h5.8v-1H3.3l6.2-6.2L8.8,15.4z"/>
	<path class="st0" d="M22.4,21.7l-6.2-6.2l-0.7,0.7l6.2,6.2h-4.6v1h5.8c0.3,0,0.5-0.2,0.5-0.5v-5.8h-1V21.7z"/>
	<path class="st0" d="M7.9,2.6v-1H2.1c-0.3,0-0.5,0.2-0.5,0.5v5.8h1V3.3l6.2,6.2l0.7-0.7L3.3,2.6H7.9z"/>
</g>
</svg>
