<?xml version="1.0" encoding="utf-8"?>
<!-- Generator: Adobe Illustrator 25.0.0, SVG Export Plug-In . SVG Version: 6.00 Build 0)  -->
<svg version="1.1" id="圖層_1" xmlns="http://www.w3.org/2000/svg" xmlns:xlink="http://www.w3.org/1999/xlink" x="0px" y="0px"
	 viewBox="0 0 25 25" style="enable-background:new 0 0 25 25;" xml:space="preserve">
<style type="text/css">
	.st0{fill:#040000;}
</style>
<g>
	<path class="st0" d="M23.4,12.1h-1.2c-0.2-4.9-4.2-9-9.1-9.3V1.6c0-0.3-0.2-0.5-0.5-0.5s-0.5,0.2-0.5,0.5v1.2C7.1,2.9,3,7,2.8,12
		H1.6c-0.3,0-0.5,0.2-0.5,0.5S1.3,13,1.6,13h1.2C3,18,7,22,12,22.2v1.2c0,0.3,0.2,0.5,0.5,0.5s0.5-0.2,0.5-0.5v-1.2
		c5-0.3,9-4.2,9.2-9.2h1.2c0.3,0,0.5-0.2,0.5-0.5S23.7,12.1,23.4,12.1z M12.5,21.3c-4.8,0-8.8-3.9-8.8-8.8c0-4.8,3.9-8.8,8.8-8.8
		c0,0,0,0,0,0l0.1,0v0c4.8,0.1,8.7,4,8.7,8.8C21.2,17.4,17.3,21.3,12.5,21.3z"/>
	<path class="st0" d="M12.5,10.2c-1.2,0-2.3,1-2.3,2.3c0,1.2,1,2.3,2.3,2.3s2.3-1,2.3-2.3C14.8,11.3,13.7,10.2,12.5,10.2z"/>
</g>
</svg>
