<?xml version="1.0" encoding="utf-8"?>
<!-- Generator: Adobe Illustrator 25.0.0, SVG Export Plug-In . SVG Version: 6.00 Build 0)  -->
<svg version="1.1" id="圖層_1" xmlns="http://www.w3.org/2000/svg" xmlns:xlink="http://www.w3.org/1999/xlink" x="0px" y="0px"
	 viewBox="0 0 25 25" style="enable-background:new 0 0 25 25;" xml:space="preserve">
<style type="text/css">
	.st0{fill:#040000;}
</style>
<g>
	<path class="st0" d="M24.7,4.1h-3.2h-3.9V3.7c0-1.6-1.3-2.9-2.9-2.9H10C8.5,0.7,7.3,2,7.3,3.4v0.7H4H0.3v1h3.2v14.1c0,3,2.4,5,6,5
		h6.1c3.6,0,6-2,6-5V5.1h3.2V4.1z M8.3,3.4c0-0.9,0.8-1.7,1.7-1.7h4.7c1.1,0,1.9,0.9,1.9,1.9v0.4H8.3V3.4z M20.5,19.3
		c0,2.9-2.6,4-5,4H9.5c-2.4,0-5-1.1-5-4V5.1h2.9h9.8h3.4V19.3z"/>
	<rect x="15.1" y="8.8" class="st0" width="1" height="9.8"/>
	<rect x="8.9" y="8.8" class="st0" width="1" height="9.8"/>
</g>
</svg>
