<svg xmlns="http://www.w3.org/2000/svg" viewBox="0 0 25 25">
	<g style="fill:var(--color-white)">
		<path d="M12.9,0.9c0.2,0,0.5,0.1,0.7,0.1C14.9,1.2,16,1.8,17,2.8c0.9,0.9,1.5,2,1.8,3.2c0.1,1.1,0.2,2.2-0.2,3.3
			c-0.2,0.6-0.5,1.2-0.8,1.7c-1.3,2.7-2.5,5.4-3.8,8.1c-0.3,0.6-0.8,1-1.5,0.9c-0.7,0-1.1-0.3-1.4-0.9c-1-2-1.9-4.1-2.9-6.1
			c-0.5-1.1-1.1-2.3-1.6-3.4C6.2,8.9,6.1,8.2,6.1,7.4c-0.1-3.2,2.2-5.3,4.2-6C10.8,1.1,11.4,1,12,1h0.1C12.4,0.9,12.6,0.9,12.9,0.9z
			M12.5,4c-1.8,0-3.2,1.4-3.2,3.2s1.4,3.2,3.2,3.2s3.2-1.4,3.2-3.2C15.7,5.5,14.3,4,12.5,4z"/>
		<polygon points="24.9,24 0,24 4.3,16 8,16 8,17 4.9,17 1.7,23 23.2,23 20,17 17,17 17,16 20.6,16 	"/>
	</g>
</svg>