<svg xmlns="http://www.w3.org/2000/svg" viewBox="0 0 25 25">
	<g style="fill:var(--color-white)">
		<path d="M12.9,0.8c0.2,0,0.5,0.1,0.7,0.1c1.3,0.2,2.4,0.8,3.4,1.8c0.9,0.9,1.5,2,1.8,3.2C18.9,7,19,8.1,18.6,9.2
			c-0.2,0.6-0.5,1.2-0.8,1.7c-1.3,2.7-2.5,5.4-3.8,8.1c-0.3,0.6-0.8,1-1.5,0.9c-0.7,0-1.1-0.3-1.4-0.9c-1-2-1.9-4.1-2.9-6.1
			c-0.5-1.1-1.1-2.3-1.6-3.4C6.2,8.8,6.1,8.1,6.1,7.3c-0.1-3.2,2.2-5.3,4.2-6C10.8,1,11.4,0.9,12,0.9c0,0,0.1,0,0.1,0
			C12.4,0.8,12.6,0.8,12.9,0.8z M12.5,4c-1.8,0-3.2,1.4-3.2,3.2c0,1.8,1.4,3.2,3.2,3.2c1.8,0,3.2-1.4,3.2-3.2
			C15.7,5.5,14.3,4,12.5,4z"/>
		<polygon points="24.9,24.2 0.1,24.2 4.6,16.5 8.4,16.5 8.4,17.5 5.2,17.5 1.9,23.2 23.1,23.2 19.8,17.5 16.7,17.5 16.7,16.5 
			20.4,16.5"/>
	</g>
</svg>