<?xml version="1.0" encoding="utf-8"?>
<!-- Generator: Adobe Illustrator 25.0.0, SVG Export Plug-In . SVG Version: 6.00 Build 0)  -->
<svg version="1.1" id="圖層_1" xmlns="http://www.w3.org/2000/svg" xmlns:xlink="http://www.w3.org/1999/xlink" x="0px" y="0px"
	 viewBox="0 0 25 25" style="enable-background:new 0 0 25 25;" xml:space="preserve">
<style type="text/css">
	.st0{fill:#040000;}
</style>
<g>
	<g>
		<path class="st0" d="M10.7,20c-5.5,0-9.9-4.5-9.9-9.9c0-5.5,4.5-9.9,9.9-9.9c5.5,0,9.9,4.5,9.9,9.9C20.6,15.6,16.2,20,10.7,20z
			 M10.7,1.1c-4.9,0-8.9,4-8.9,8.9s4,8.9,8.9,8.9s8.9-4,8.9-8.9S15.6,1.1,10.7,1.1z"/>
	</g>
	<g>
		<rect x="19.8" y="15.6" transform="matrix(0.7241 -0.6897 0.6897 0.7241 -8.7146 19.7386)" class="st0" width="1" height="10.4"/>
	</g>
	<g>
		<path class="st0" d="M11.5,2.8C7.1,3,4.7,4.1,4.2,10.1C5.9,4.1,11.5,2.8,11.5,2.8z"/>
	</g>
</g>
</svg>
