<?xml version="1.0" encoding="utf-8"?>
<!-- Generator: Adobe Illustrator 25.0.0, SVG Export Plug-In . SVG Version: 6.00 Build 0)  -->
<svg version="1.1" id="圖層_1" xmlns="http://www.w3.org/2000/svg" xmlns:xlink="http://www.w3.org/1999/xlink" x="0px" y="0px"
	 viewBox="0 0 25 25" style="enable-background:new 0 0 25 25;" xml:space="preserve">
<style type="text/css">
	.st0{fill:#040000;}
	.st1{fill:none;stroke:#040000;stroke-miterlimit:10;}
	.st2{fill:none;stroke:#040000;stroke-linecap:round;stroke-miterlimit:10;}
</style>
<g>
	<path class="st0" d="M16.4,22.9L16.1,22c1.9-0.7,3.6-2.1,4.7-3.8C22.9,15,23,10.8,21,7.5L21.8,7c2.2,3.6,2.2,8.2-0.2,11.7
		C20.4,20.7,18.6,22.1,16.4,22.9z"/>
</g>
<g>
	<path class="st1" d="M13.6,2.4"/>
</g>
<g>
	<path class="st0" d="M16.2,23c-0.1,0-0.3-0.1-0.4-0.2c-0.1-0.1-0.2-0.3-0.1-0.5l2.7-8.7l1,0.3l-2.5,8l7.8-1.3l0.2,1L16.2,23
		C16.3,23,16.3,23,16.2,23z"/>
</g>
<g>
	<path class="st2" d="M18.8,14.2"/>
</g>
<g>
	<path class="st2" d="M24.8,20.4"/>
</g>
<g>
	<path class="st0" d="M9.2,23.1c-0.7-0.2-1.3-0.5-1.9-0.8c-0.9-0.5-1.7-1.1-2.5-1.9l0.7-0.7c0.7,0.7,1.4,1.2,2.2,1.7
		c0.6,0.3,1.2,0.6,1.8,0.8L9.2,23.1z M2.9,17.9c-0.8-1.5-1.3-3.3-1.3-5l1,0c0,1.6,0.4,3.2,1.2,4.6L2.9,17.9z M3,10l-1-0.3
		c0-0.1,0.1-0.2,0.1-0.3c0.5-1.6,1.3-3,2.5-4.2l0.7,0.7C4.3,7,3.6,8.3,3.1,9.7C3.1,9.8,3,9.9,3,10z M19.1,5.3c-1-0.9-2.2-1.6-3.5-2
		c-0.2-0.1-0.4-0.1-0.6-0.2l0.2-1c0.2,0.1,0.5,0.1,0.7,0.2c1.5,0.5,2.8,1.2,3.9,2.2L19.1,5.3z M7.6,4.2L7.1,3.3
		c1.5-0.9,3.2-1.4,5-1.5l0,1C10.5,2.9,9,3.4,7.6,4.2z"/>
</g>
</svg>
