<?xml version="1.0" encoding="utf-8"?>
<!-- Generator: Adobe Illustrator 25.0.0, SVG Export Plug-In . SVG Version: 6.00 Build 0)  -->
<svg version="1.1" id="圖層_1" xmlns="http://www.w3.org/2000/svg" xmlns:xlink="http://www.w3.org/1999/xlink" x="0px" y="0px"
	 viewBox="0 0 25 25" style="enable-background:new 0 0 25 25;" xml:space="preserve">
<style type="text/css">
	.st0{fill:#040000;}
</style>
<g>
	<path class="st0" d="M13.3,18v2.2h-2.2V18H13.3z"/>
	<path class="st0" d="M12.5,1.2c6.2,0,11.2,5,11.2,11.2s-5,11.2-11.2,11.2s-11.2-5-11.2-11.2S6.3,1.2,12.5,1.2 M12.5,0.2
		C5.7,0.2,0.2,5.7,0.2,12.5s5.5,12.2,12.2,12.2s12.2-5.5,12.2-12.2S19.3,0.2,12.5,0.2L12.5,0.2z"/>
	<path class="st0" d="M12.9,16.5h-1.6c0-1.2,0-1.9,0-2.2c0-0.3,0.1-0.6,0.2-0.9c0.1-0.3,0.3-0.5,0.4-0.7s0.6-0.4,1.2-0.8
		c0.7-0.4,1.1-0.7,1.4-0.9c0.3-0.2,0.5-0.5,0.7-0.9s0.3-0.8,0.3-1.2c0-0.8-0.3-1.5-0.9-2c-0.6-0.5-1.3-0.7-2.2-0.7
		c-1.9,0-3,1.1-3.4,3.3L7.4,9.2c0.6-3,2.3-4.5,5.2-4.5c1.5,0,2.7,0.4,3.6,1.2c0.9,0.8,1.4,1.8,1.4,3.1c0,1.6-0.9,3-2.8,3.9
		c-0.8,0.4-1.3,0.8-1.5,1c-0.2,0.2-0.3,0.6-0.3,1.2L12.9,16.5z"/>
</g>
</svg>
