<svg xmlns="http://www.w3.org/2000/svg" viewBox="0 0 25 25">
	<g style="fill:var(--color-white)">
		<path d="M13,18v2h-2v-2H13z"/>
		<path d="M12.6,17H11c0-1.2,0-1.9,0-2.2s0.1-0.6,0.2-0.9c0.1-0.3,0.3-0.5,0.4-0.7s0.6-0.4,1.2-0.8c0.7-0.4,1.1-0.7,1.4-0.9
			c0.3-0.2,0.5-0.5,0.7-0.9s0.3-0.8,0.3-1.2c0-0.8-0.3-1.5-0.9-2c-0.6-0.5-1.3-0.7-2.2-0.7c-1.9,0-3,1.1-3.4,3.3L7.1,9.7
			c0.6-3,2.3-4.5,5.2-4.5c1.5,0,2.7,0.4,3.6,1.2c0.9,0.8,1.4,1.8,1.4,3.1c0,1.6-0.9,3-2.8,3.9c-0.8,0.4-1.3,0.8-1.5,1
			s-0.3,0.6-0.3,1.2L12.6,17z"/>
		<path d="M12.5,24.5c-6.6,0-12-5.4-12-12c0-6.6,5.4-12,12-12c6.6,0,12,5.4,12,12C24.5,19.1,19.1,24.5,12.5,24.5z M12.5,1.5
			c-6.1,0-11,4.9-11,11s4.9,11,11,11s11-4.9,11-11S18.6,1.5,12.5,1.5z"/>
	</g>
</svg>