<svg xmlns="http://www.w3.org/2000/svg" viewBox="0 0 160 144">
  <circle id="Dot" fill="#4285f4" cx="80" cy="80.150002" r="28" />
  <path id="Red" fill="#ea4335"
    d="M 144,48 V 88.15 112 c 0,1.69 -0.34,3.29 -0.82,4.82 v 0 0 c -1.57,4.92 -5.43,8.78 -10.35,10.35 v 0 0 c -1.53,0.49 -3.13,0.82 -4.82,0.82 H 50 l 16,16 h 50 12 c 4.42,0 8.63,-0.9 12.46,-2.51 3.83,-1.62 7.28,-3.96 10.17,-6.86 1.45,-1.45 2.76,-3.03 3.91,-4.74 2.3,-3.4 3.96,-7.28 4.81,-11.44 0.43,-2.08 0.65,-4.24 0.65,-6.45 V 99.99 72.15 60 l -6,-19 -10.82,2.18 c 0.48,1.53 0.82,3.13 0.82,4.82 z" />
  <path id="Blue" fill="#4285f4"
    d="m 16,48 c 0,-1.69 0.34,-3.29 0.82,-4.82 C 18.39,38.26 22.25,34.4 27.17,32.83 28.71,32.34 30.31,32 32,32 h 96 c 1.69,0 3.29,0.34 4.82,0.82 0,0 0,0 0,0 L 133,21 116,16 100,0 H 86.56 80 73.44 60 L 44,16 H 32 C 14.33,16 0,30.33 0,48 v 12 20 l 16,16 z" />
  <path id="Green" fill="#34a853"
    d="m 128,16 h -12 l 16.83,16.83 c 1.23,0.39 2.39,0.93 3.47,1.59 2.16,1.32 3.97,3.13 5.29,5.29 0.66,1.08 1.2,2.24 1.59,3.47 v 0 L 160,60 V 48 C 160,30.33 145.67,16 128,16 Z" />
  <path id="Yellow" fill="#fbbc04"
    d="m 32,144 h 39.89 l -16,-16 H 32 c -8.82,0 -16,-7.18 -16,-16 V 88.11 L 0,72.11 V 112 c 0,17.67 14.33,32 32,32 z"
    style="display:inline" />
</svg>