<svg xmlns="http://www.w3.org/2000/svg" viewBox="0 0 60 45">
<style type="text/css">
	.st0{fill:#FFFFFF;}
	.st1{fill:#27BCEE;}
	.st2{fill:none;stroke:#27BCEE;stroke-miterlimit:10;}
</style>
	<path class="st0" d="M59,1v43H1V1H59 M60,0H0v45h60V0L60,0z"/>
	<path class="st1" d="M29.3,30.5V40H5.4v-9.5H29.3 M30.3,29.5H4.4V41h25.9V29.5L30.3,29.5z"/>
	<path class="st1" d="M54.3,30.5V40H30.3v-9.5H54.3 M55.3,29.5H29.3V41h25.9V29.5L55.3,29.5z"/>
	<polyline class="st2" points="17.9,38.9 14.2,35.2 17.9,31.5 	"/>
	<line class="st2" x1="20.5" y1="35.2" x2="14.2" y2="35.2"/>
	<polyline class="st2" points="41.8,31.5 45.5,35.2 41.8,38.9 	"/>
	<line class="st2" x1="39.1" y1="35.2" x2="45.5" y2="35.2"/>
</svg>