<svg xmlns="http://www.w3.org/2000/svg" viewBox="0 0 25 25">
	<g style="fill:var(--color-white)">
		<path d="M8.9,2C10.1,2,11,3,11,4.1v4.9c0,1.2-1,2.1-2.1,2.1H4.1C2.9,11,2,10,2,8.9V4.1C2,2.9,3,2,4.1,2L8.9,2 M9,1H4.1
			C2.4,1,1,2.4,1,4.1v4.8C1,10.6,2.4,12,4.1,12h4.8c1.7,0,3.1-1.4,3.1-3.1V4C12,2.4,10.6,1,9,1L9,1z"/>
		<path d="M20.9,2C22.1,2,23,3,23,4.1v4.9c0,1.2-1,2.1-2.1,2.1h-4.9c-1.2,0-2.1-1-2.1-2.1V4.1C14,2.9,15,2,16.1,2L20.9,2 M21,1h-4.9
			C14.4,1,13,2.4,13,4.1v4.8c0,1.7,1.4,3.1,3.1,3.1h4.8c1.7,0,3.1-1.4,3.1-3.1V4C24,2.4,22.6,1,21,1L21,1z"/>
		<path d="M20.9,14c1.2,0,2.1,1,2.1,2.1v4.9c0,1.2-1,2.1-2.1,2.1h-4.9c-1.2,0-2.1-1-2.1-2.1v-4.9c0-1.2,1-2.1,2.1-2.1H20.9 M21,13
			h-4.9c-1.7,0-3.1,1.4-3.1,3.1v4.8c0,1.7,1.4,3.1,3.1,3.1h4.8c1.7,0,3.1-1.4,3.1-3.1V16C24,14.4,22.6,13,21,13L21,13z"/>
		<path d="M8.9,14c1.2,0,2.1,1,2.1,2.1v4.9c0,1.2-1,2.1-2.1,2.1H4.1C2.9,23,2,22,2,20.9v-4.9C2,14.9,3,14,4.1,14H8.9 M9,13H4.1
			C2.4,13,1,14.4,1,16.1v4.8C1,22.6,2.4,24,4.1,24h4.8c1.7,0,3.1-1.4,3.1-3.1V16C12,14.4,10.6,13,9,13L9,13z"/>
	</g>
</svg>