<svg xmlns="http://www.w3.org/2000/svg" viewBox="0 0 25 25">
	<path style="fill:var(--color-white);"
		d="M22.7,2.3c-0.8-0.8-2-1.2-3.2-1.1c-1.2,0.1-2.4,0.6-3.3,1.6c0,0-0.1,0.1-0.1,0.1l0,0L3.2,15.7L1,24l8.3-2.3L21.8,9.2
	l0.1-0.2C22,9,22.2,8.9,22.2,8.8c0.9-0.9,1.5-2.1,1.6-3.3C23.9,4.3,23.5,3.1,22.7,2.3z M8.7,20.9l-6.4,1.7l1.7-6.4l12-12l4.6,4.6
	L8.7,20.9z M21.5,8.1C21.5,8.1,21.5,8.1,21.5,8.1l-4.7-4.5c0,0,0.1-0.1,0.1-0.1c0.7-0.7,1.7-1.2,2.7-1.3c1-0.1,1.8,0.2,2.4,0.8
	c0.6,0.6,0.9,1.5,0.8,2.4C22.7,6.4,22.3,7.3,21.5,8.1z" />
</svg>