<?xml version="1.0" encoding="utf-8"?>
<svg xmlns="http://www.w3.org/2000/svg" viewBox="0 0 25 25">
	<g style="fill:var(--color-white)">
		<path
			d="M5.8,3.9v6.2c0,1.5-0.5,2.3-1.5,2.4c1,0.1,1.5,0.9,1.5,2.4v6.3c0,0.2,0,0.4,0.1,0.5c0.1,0.1,0.3,0.1,0.5,0.1H9V23H5.9
	c-0.5,0-0.9-0.1-1.1-0.4c-0.2-0.3-0.3-0.7-0.3-1.2v-6c0-0.8-0.1-1.4-0.4-1.8c-0.3-0.4-0.7-0.6-1.3-0.6H1v-1.2h1.7
	c0.6,0,1.1-0.2,1.3-0.6s0.4-1,0.4-1.8v-6c0-0.5,0.1-0.9,0.3-1.2C5,2.2,5.3,2,5.9,2H9v1.2H6.5c-0.3,0-0.4,0-0.5,0.2
	C5.9,3.5,5.8,3.6,5.8,3.9z" />
		<path
			d="M19.2,10.1V3.9c0-0.2,0-0.4-0.1-0.5c-0.1-0.1-0.3-0.2-0.5-0.2H16V2h3.1c0.5,0,0.9,0.1,1.1,0.4c0.2,0.3,0.3,0.7,0.3,1.2v6
	c0,0.8,0.1,1.4,0.4,1.8c0.3,0.4,1.7,0.6,2.3,0.6h0.4v1.2h-0.4c-0.6,0-2.1,0.2-2.3,0.6c-0.3,0.4-0.4,1-0.4,1.8v6
	c0,0.5-0.1,0.9-0.3,1.2C20,22.8,19.7,23,19.1,23H16v-1.2h2.5c0.3,0,0.4,0,0.5-0.1c0.1-0.1,0.1-0.3,0.1-0.5v-6.3
	c0-1.5,0.5-2.2,1.5-2.4C19.7,12.4,19.2,11.6,19.2,10.1z" />
	</g>
</svg>