<svg xmlns="http://www.w3.org/2000/svg" viewBox="0 0 25 25">
	<g style="fill:var(--color-white)">
		<path d="M24.7,20.6l-5.8,1c1.1-0.8,2-1.7,2.7-2.9C24,15.2,24,10.6,21.8,7L21,7.5c2,3.3,1.9,7.5-0.2,10.7c-0.9,1.4-2.3,2.6-3.8,3.4
			l2.4-7.7l-1-0.3l-2.7,8.7c-0.1,0.2,0,0.4,0.1,0.5s0.3,0.2,0.4,0.2l8.7-1.4L24.7,20.6z"/>
		<path d="M3.1,9.7C3.6,8.3,4.3,7,5.3,5.9L4.6,5.2c-1.2,1.2-2,2.6-2.5,4.2C2.1,9.5,2,9.6,2,9.7L3,10C3,9.9,3.1,9.8,3.1,9.7z"/>
		<path d="M19.8,4.5c-1.1-1-2.4-1.7-3.9-2.2c-0.2-0.1-0.5-0.1-0.7-0.2l-0.2,1c0.2,0.1,0.4,0.1,0.6,0.2c1.3,0.4,2.5,1.1,3.5,2
			L19.8,4.5z"/>
		<path d="M1.6,13c0,1.7,0.5,3.5,1.3,5l0.9-0.4c-0.8-1.4-1.2-3-1.2-4.6H1.6z"/>
		<path d="M5.5,19.7l-0.7,0.7c0.8,0.8,1.6,1.4,2.5,1.9c0.6,0.3,1.2,0.6,1.9,0.8l0.3-0.9c-0.6-0.2-1.2-0.5-1.8-0.8
			C6.9,20.9,6.2,20.4,5.5,19.7z"/>
		<path d="M7.5,4.2c1.4-0.8,2.9-1.3,4.5-1.4v-1c-1.8,0.1-3.5,0.6-5,1.5L7.5,4.2z"/>
	</g>
</svg>