<svg xmlns="http://www.w3.org/2000/svg" viewBox="0 0 25 25">
	<g style="fill:var(--color-white)">
		<path d="M23.4,12.1h-1.2c-0.2-4.9-4.2-9-9.1-9.3V1.6c0-0.3-0.2-0.5-0.5-0.5s-0.5,0.2-0.5,0.5v1.2C7.1,2.9,3,7,2.8,12H1.6
			c-0.3,0-0.5,0.2-0.5,0.5S1.3,13,1.6,13h1.2C3,18,7,22,12,22.2v1.2c0,0.3,0.2,0.5,0.5,0.5s0.5-0.2,0.5-0.5v-1.2c5-0.3,9-4.2,9.2-9.2
			h1.2c0.3,0,0.5-0.2,0.5-0.5S23.7,12.1,23.4,12.1z M12.5,21.3c-4.8,0-8.8-3.9-8.8-8.8c0-4.8,3.9-8.8,8.8-8.8l0,0h0.1l0,0
			c4.8,0.1,8.7,4,8.7,8.8C21.2,17.4,17.3,21.3,12.5,21.3z"/>
		<path d="M12.5,10.2c-1.2,0-2.3,1-2.3,2.3c0,1.2,1,2.3,2.3,2.3s2.3-1,2.3-2.3C14.8,11.3,13.7,10.2,12.5,10.2z"/>
		<path d="M23.6,12.1h-1.2c-0.2-4.9-4.2-9-9.1-9.3V1.6c0-0.3-0.2-0.5-0.5-0.5s-0.5,0.2-0.5,0.5v1.2C7.3,2.9,3.2,7,3,12H1.8
			c-0.3,0-0.5,0.2-0.5,0.5S1.5,13,1.8,13H3c0.2,5,4.2,9,9.2,9.2v1.2c0,0.3,0.2,0.5,0.5,0.5s0.5-0.2,0.5-0.5v-1.2c5-0.3,9-4.2,9.2-9.2
			h1.2c0.3,0,0.5-0.2,0.5-0.5S23.9,12.1,23.6,12.1z M12.7,21.3c-4.8,0-8.8-3.9-8.8-8.8c0-4.8,3.9-8.8,8.8-8.8l0,0h0.1l0,0
			c4.8,0.1,8.7,4,8.7,8.8C21.4,17.4,17.5,21.3,12.7,21.3z"/>
		<path d="M12.7,10.2c-1.2,0-2.3,1-2.3,2.3c0,1.2,1,2.3,2.3,2.3s2.3-1,2.3-2.3C15,11.3,13.9,10.2,12.7,10.2z"/>
	</g>
</svg>