<svg xmlns="http://www.w3.org/2000/svg" viewBox="0 0 25 25">
	<g style="fill:var(--color-white)">
		<path d="M23.9,4H21l-3,0V3.6C18,2.2,16.8,1,15.3,1L9.5,1C8.1,0.9,7,2.1,7,3.4V4H4.5H1v1h3v14c0,3,2.3,5,5.6,5h5.7
			c3.4,0,5.6-2,5.6-5V5h3L23.9,4L23.9,4z M8,3.4C7.9,2.5,8.7,1.7,9.5,2h5.7c1-0.3,1.8,0.6,1.8,1.6V4H8V3.4z M19.9,19
			c0,2.9-2.4,4-4.7,4H9.7C7.4,23,5,21.9,5,19V5h2.7h9.1H20L19.9,19L19.9,19z"/>
		<rect x="15" y="9" width="1" height="10"/>
		<rect x="9" y="9" width="1" height="10"/>
	</g>
</svg>