<svg xmlns="http://www.w3.org/2000/svg" viewBox="0 0 25 25" >
	<g style="fill:var(--color-white);">
		<path d="M24,12.8c-0.3-0.5-0.9-0.8-1.7-0.8h-2.4V8.7c0-1-0.7-1.7-1.6-1.7h-1.7v1h1.7c0.4,0,0.7,0.3,0.7,0.7V12H6.6
			c-1.2,0-2.4,0.7-2.8,1.6L1,20V8.7C1,8.4,1.2,8.1,1.4,8c0.2,0,0.6,0,1,0L9,8v0h3.2V7H9C8.8,5.7,7.6,4,6.1,4H2.9C1.3,4,0,5.7,0,7.3
			v1.2l0,0.1l0,0c0,0,0,0.1,0,0.1v13.6c0,0.1,0,0.1,0,0.2c0,0.3,0,0.6,0.2,0.8c0.2,0.3,0.4,0.5,0.8,0.6C1.2,23.9,1.4,24,1.6,24h0.2
			h15.7h0.7c0.5,0,1-0.3,1.3-0.6c0.4-0.3,0.7-0.6,0.8-0.9L24,14C24.2,13.6,24.2,13.1,24,12.8z M2.9,5H6c0.9,0,1.7,1.2,1.8,2H1.6
			C1.4,7,1.2,7,1.1,7.1C1.1,6.2,1.9,5,2.9,5z M18.9,22.3c0,0.1,0,0.2-0.1,0.3C18.4,22.8,18,23,17.5,23H1.8c-0.2,0-0.4,0-0.5-0.1
			c-0.2-0.1-0.3-0.2-0.3-0.4c0,0,0,0,0,0L4.7,14c0.2-0.5,1.1-1,1.9-1h12.2V22.3z M23.1,13.6L19.9,21v-8h2.4c0.5,0,0.7,0.1,0.8,0.3
			C23.1,13.3,23.2,13.4,23.1,13.6z"/>
		<path d="M13.9,2.6v7.3h1V2.6L17.3,5L18,4.2L14.8,1c-0.2-0.2-0.5-0.2-0.7,0l-3.2,3.3L11.6,5L13.9,2.6z"/>

		<path class="st0" d="M78.3,66.2v24.5h-3.5V66.2H55.5c-1,0-1.8,0.1-2.5,0.2c-0.6,0.2-1.1,0.4-1.6,0.7c-0.4,0.3-0.8,0.6-1.1,0.8
			c-0.3,0.3-0.6,0.6-1,0.8s-0.8,0.5-1.4,0.6c-0.5,0.1-1.2,0.2-2.1,0.3H25.8v24.5h24.5v3.5H25.8c-0.5,0-0.9-0.1-1.4-0.3
			c-0.4-0.2-0.8-0.4-1.1-0.7c-0.3-0.3-0.6-0.7-0.8-1.1c-0.2-0.4-0.3-0.9-0.3-1.4v-35c0-0.5,0.1-0.9,0.3-1.4c0.2-0.4,0.4-0.8,0.7-1.1
			s0.7-0.6,1.1-0.8c0.4-0.2,0.9-0.3,1.4-0.3h20.1c0.7,0,1.3,0.1,1.9,0.4c0.6,0.2,1.1,0.6,1.6,1c0.5,0.4,0.9,0.9,1.3,1.4
			c0.4,0.5,0.8,1,1.1,1.6c0.2,0.4,0.5,0.8,0.7,1.1c0.2,0.3,0.5,0.6,0.8,0.8s0.6,0.4,1,0.5c0.3,0.1,0.8,0.2,1.3,0.2h19.3
			c0.5,0,0.9,0.1,1.4,0.3c0.4,0.2,0.8,0.4,1.1,0.7c0.3,0.3,0.6,0.7,0.8,1.1C78.2,65.3,78.3,65.7,78.3,66.2z M45.9,66.2
			c0.5,0,0.9-0.1,1.2-0.2c0.3-0.2,0.6-0.4,1-0.6c0.3-0.2,0.6-0.5,0.9-0.8c0.3-0.3,0.7-0.5,1.1-0.8c-0.3-0.3-0.6-0.7-0.8-1.2
			c-0.3-0.5-0.6-1-1-1.5c-0.4-0.5-0.7-0.9-1.1-1.3c-0.4-0.4-0.8-0.5-1.3-0.5H25.8v7H45.9z M78.3,101.2c0,1-0.2,1.9-0.5,2.7
			c-0.4,0.8-0.9,1.6-1.5,2.2c-0.6,0.7-1.4,1.2-2.2,1.5s-1.8,0.5-2.7,0.5v-3.5c0.5,0,0.9-0.1,1.4-0.3c0.4-0.2,0.8-0.4,1.1-0.7
			c0.3-0.3,0.6-0.7,0.8-1.1c0.2-0.4,0.3-0.9,0.3-1.4c0-0.5-0.1-0.9-0.3-1.4c-0.2-0.4-0.4-0.8-0.7-1.1c-0.3-0.3-0.7-0.6-1.1-0.8
			c-0.4-0.2-0.9-0.3-1.4-0.3h-8l4.4,4.5l-2.5,2.5L56.6,96l8.7-8.7l2.5,2.5l-4.4,4.5h8c1,0,1.9,0.2,2.7,0.5c0.8,0.4,1.6,0.9,2.2,1.5
			c0.7,0.6,1.2,1.4,1.5,2.2S78.3,100.2,78.3,101.2z"/>
	</g>
</svg>