<svg xmlns="http://www.w3.org/2000/svg" viewBox="0 0 25 25">
	<path style="fill:var(--color-white)" d="M15,2.7v6.2h1V2.7l1.8,1.8l0.7-0.8l-2.6-2.6c-0.2-0.2-0.5-0.2-0.7,0l-2.5,2.6l0.7,0.7L15,2.7z"/>
	<path style="fill:var(--color-white)" d="M25.1,10.8c-0.3-0.5-0.9-0.8-1.7-0.8H21V7.7c0-1-0.7-1.7-1.6-1.7H18v1h1.3C19.7,7,20,7.3,20,7.7V10H7.6
		c-1.2,0-2.4,0.7-2.8,1.6L2,18V7.7C2,7.4,2.2,7.1,2.4,7c0.2,0,0.6,0,1,0H10h3V6H10C9.8,4.7,8.6,3,7.1,3H3.9C2.3,3,1,4.3,1,5.9v1.6
		v0.1v0.1v12.6c0,0.1,0,0.1,0,0.2c0,0.3,0,0.6,0.2,0.8c0.2,0.3,0.4,0.5,0.8,0.6c0.2,0,0.4,0.1,0.6,0.1h0.2h15.8h0.7
		c0.5,0,1-0.3,1.3-0.6c0.4-0.3,0.7-0.6,0.8-0.9l3.7-8.5C25.3,11.6,25.3,11.1,25.1,10.8z M3.9,4H7c0.9,0,1.7,1.2,1.8,2H2.6
		C2.4,6,2.2,6,2.1,6.1C2.1,5.2,2.9,4,3.9,4z M24.1,11.6l-3,6.9L21,19c0,0.1-1.1,1.5-1.2,1.6C19.4,20.8,19,21,18.5,21H2.8
		c-0.2,0-0.4,0-0.5-0.1C2.1,20.8,2,20.7,2,20.5L5.7,12c0.2-0.5,1.1-1,1.9-1H23h0.3c0.5,0,0.7,0.1,0.8,0.3
		C24.1,11.3,24.2,11.4,24.1,11.6z"/>
</svg>
