<svg xmlns="http://www.w3.org/2000/svg" viewBox="0 0 231.91 64.73"><defs><style>.cls-1{fill:#666;}.cls-2{fill:#ed1e79;}</style></defs><polygon class="cls-1" points="5.42 63.98 37.57 63.98 37.57 61.41 8.06 61.41 8.06 33.7 35.98 33.7 35.98 31.06 8.06 31.06 8.06 8.82 37.57 8.82 37.57 6.18 5.42 6.18 5.42 63.98"/><path class="cls-1" d="M108.29,156.06a10.44,10.44,0,0,0-3.17-3c4.32-1,7.58-2.61,9.7-4.93,2.4-2.61,3.61-6.3,3.61-11a11.07,11.07,0,0,0-1.58-6,11.86,11.86,0,0,0-3.86-3.86,19.46,19.46,0,0,0-5.53-2.15,45.9,45.9,0,0,0-6-1c-1.81-.18-3.87-.27-6.12-.27H83.93v57.8h2.64V154h8.8a38.87,38.87,0,0,1,4.77.22,19.91,19.91,0,0,1,3.09.69,4.23,4.23,0,0,1,2.22,1.71,33.55,33.55,0,0,1,2.07,3.36c.66,1.22,1.58,3.12,2.73,5.62l7.07,16h2.89l-7.62-17A53,53,0,0,0,108.29,156.06ZM86.57,126.45h8.8c7.24,0,12.55,1,15.79,2.8a8.51,8.51,0,0,1,4.63,7.91c0,5.05-1.53,8.59-4.67,10.83s-8.49,3.44-15.75,3.44h-8.8Z" transform="translate(-34.05 -117.63)"/><path class="cls-1" d="M154.27,156.06a10.47,10.47,0,0,0-3.18-3c4.32-1,7.58-2.61,9.7-4.93,2.4-2.61,3.62-6.3,3.62-11a11.15,11.15,0,0,0-1.58-6,11.89,11.89,0,0,0-3.87-3.86,19.22,19.22,0,0,0-5.53-2.15,45.77,45.77,0,0,0-6-1c-1.82-.18-3.88-.27-6.12-.27H129.9v57.8h2.64V154h8.81a39,39,0,0,1,4.77.22,19.79,19.79,0,0,1,3.08.69,4.23,4.23,0,0,1,2.22,1.71,31.81,31.81,0,0,1,2.07,3.36c.66,1.22,1.59,3.12,2.74,5.62l7.06,16h2.9l-7.62-17A53.85,53.85,0,0,0,154.27,156.06Zm-21.73-29.61h8.81c7.24,0,12.55,1,15.79,2.8a8.53,8.53,0,0,1,4.63,7.91c0,5.05-1.53,8.59-4.67,10.83s-8.49,3.44-15.75,3.44h-8.81Z" transform="translate(-34.05 -117.63)"/><path class="cls-1" d="M196.24,123.05c-7.56,0-13.51,2.64-17.66,7.85s-6.19,12.5-6.19,21.85,2.11,16.7,6.26,21.84,10,7.78,17.59,7.78,13.5-2.63,17.66-7.82,6.19-12.45,6.19-21.8-2.08-16.7-6.19-21.85S203.8,123.05,196.24,123.05Zm0,56.75c-6.83,0-12.15-2.33-15.79-6.94S175,161.46,175,152.71s1.85-15.53,5.49-20.15,8.89-6.87,15.72-6.87S208.36,128,212,132.56s5.49,11.4,5.49,20.15S215.6,168.26,212,172.9,203.07,179.8,196.24,179.8Z" transform="translate(-34.05 -117.63)"/><path class="cls-1" d="M258.33,164.57a53,53,0,0,0-4.3-8.51,10.44,10.44,0,0,0-3.17-3c4.32-1,7.58-2.61,9.7-4.93,2.4-2.61,3.61-6.3,3.61-11a11.07,11.07,0,0,0-1.58-6,11.86,11.86,0,0,0-3.86-3.86,19.46,19.46,0,0,0-5.53-2.15,46.06,46.06,0,0,0-6-1c-1.82-.18-3.88-.27-6.12-.27H229.67v57.8h2.64V154h8.81a38.8,38.8,0,0,1,4.76.22,19.91,19.91,0,0,1,3.09.69,4.23,4.23,0,0,1,2.22,1.71,33.55,33.55,0,0,1,2.07,3.36c.66,1.22,1.58,3.12,2.73,5.62l7.07,16H266Zm-26-38.12h8.81c7.23,0,12.54,1,15.78,2.8a8.51,8.51,0,0,1,4.63,7.91c0,5.05-1.52,8.59-4.67,10.83s-8.49,3.44-15.74,3.44h-8.81Z" transform="translate(-34.05 -117.63)"/><polygon class="cls-2" points="0 58.56 32.15 58.56 32.15 55.99 2.64 55.99 2.64 28.28 30.56 28.28 30.56 25.64 2.64 25.64 2.64 3.4 32.15 3.4 32.15 0.76 0 0.76 0 58.56"/><path class="cls-2" d="M102.87,150.64a10.55,10.55,0,0,0-3.17-3c4.32-1,7.58-2.61,9.7-4.93,2.4-2.61,3.61-6.3,3.61-11a11.07,11.07,0,0,0-1.58-6,11.86,11.86,0,0,0-3.86-3.86,19.46,19.46,0,0,0-5.53-2.15,44.27,44.27,0,0,0-6-1c-1.81-.18-3.87-.27-6.12-.27H78.51v57.8h2.64V148.57H90a38.87,38.87,0,0,1,4.77.22,19.91,19.91,0,0,1,3.09.69,4.23,4.23,0,0,1,2.22,1.71,31.79,31.79,0,0,1,2.06,3.36c.67,1.22,1.59,3.12,2.74,5.62l7.07,16h2.89l-7.62-17A53.85,53.85,0,0,0,102.87,150.64ZM81.15,121H90c7.24,0,12.55.94,15.79,2.8a8.51,8.51,0,0,1,4.63,7.91c0,5-1.53,8.59-4.67,10.83S97.21,146,90,146h-8.8Z" transform="translate(-34.05 -117.63)"/><path class="cls-2" d="M148.85,150.64a10.47,10.47,0,0,0-3.18-3c4.32-1,7.58-2.61,9.7-4.93,2.4-2.61,3.62-6.3,3.62-11a11.15,11.15,0,0,0-1.58-6,11.89,11.89,0,0,0-3.87-3.86,19.34,19.34,0,0,0-5.53-2.15,44.14,44.14,0,0,0-6-1c-1.82-.18-3.88-.27-6.12-.27H124.48v57.8h2.64V148.57h8.81a39,39,0,0,1,4.77.22,19.79,19.79,0,0,1,3.08.69,4.23,4.23,0,0,1,2.22,1.71,31.81,31.81,0,0,1,2.07,3.36c.66,1.22,1.59,3.12,2.74,5.62l7.06,16h2.9l-7.62-17A53.85,53.85,0,0,0,148.85,150.64ZM127.12,121h8.81c7.24,0,12.55.94,15.79,2.8a8.53,8.53,0,0,1,4.63,7.91c0,5-1.53,8.59-4.67,10.83S143.19,146,135.93,146h-8.81Z" transform="translate(-34.05 -117.63)"/><path class="cls-2" d="M190.82,117.63c-7.56,0-13.51,2.64-17.66,7.85S167,138,167,147.33s2.11,16.7,6.26,21.84,10,7.78,17.59,7.78,13.5-2.63,17.66-7.82,6.19-12.45,6.19-21.8-2.08-16.7-6.19-21.85S198.38,117.63,190.82,117.63Zm0,56.75c-6.83,0-12.15-2.33-15.79-6.94s-5.42-11.4-5.42-20.15,1.85-15.53,5.49-20.15,8.89-6.87,15.72-6.87,12.12,2.31,15.72,6.87,5.49,11.4,5.49,20.15-1.85,15.55-5.49,20.19S197.65,174.38,190.82,174.38Z" transform="translate(-34.05 -117.63)"/><path class="cls-2" d="M252.91,159.15a53,53,0,0,0-4.3-8.51,10.44,10.44,0,0,0-3.17-3c4.32-1,7.58-2.61,9.7-4.93,2.4-2.61,3.61-6.3,3.61-11a11.07,11.07,0,0,0-1.58-6,11.86,11.86,0,0,0-3.86-3.86,19.46,19.46,0,0,0-5.53-2.15,44.42,44.42,0,0,0-6-1c-1.82-.18-3.88-.27-6.12-.27H224.25v57.8h2.64V148.57h8.81a38.8,38.8,0,0,1,4.76.22,19.91,19.91,0,0,1,3.09.69,4.23,4.23,0,0,1,2.22,1.71,33.55,33.55,0,0,1,2.07,3.36c.66,1.22,1.58,3.12,2.73,5.62l7.07,16h2.89Zm-26-38.12h8.81c7.23,0,12.54.94,15.78,2.8a8.51,8.51,0,0,1,4.63,7.91c0,5-1.52,8.59-4.67,10.83S243,146,235.7,146h-8.81Z" transform="translate(-34.05 -117.63)"/></svg>