<?xml version="1.0" encoding="utf-8"?>
<!-- Generator: Adobe Illustrator 25.0.0, SVG Export Plug-In . SVG Version: 6.00 Build 0)  -->
<svg version="1.1" id="圖層_1" xmlns="http://www.w3.org/2000/svg" xmlns:xlink="http://www.w3.org/1999/xlink" x="0px" y="0px"
	 viewBox="0 0 160 80" style="enable-background:new 0 0 160 80;" xml:space="preserve">
<style type="text/css">
	.st0{fill:#666666;}
	.st1{fill:#57CDFF;}
</style>
<g>
	<polygon class="st0" points="31.1,31.6 30.2,31.6 30.2,50.6 41,50.6 41,49.6 31.1,49.6 	"/>
	<path class="st0" d="M51.2,31.4c-2.5,0-4.4,0.9-5.8,2.6c-1.3,1.7-2,4.1-2,7.2c0,3.1,0.7,5.5,2.1,7.2c1.3,1.7,3.3,2.6,5.8,2.6
		c2.5,0,4.4-0.9,5.8-2.6c1.3-1.7,2-4.1,2-7.1c0-3.1-0.7-5.5-2-7.2C55.7,32.2,53.7,31.4,51.2,31.4z M51.2,49.9
		c-2.2,0-3.9-0.7-5.1-2.2c-1.2-1.5-1.8-3.7-1.8-6.6c0-2.8,0.6-5,1.8-6.5c1.2-1.5,2.8-2.2,5.1-2.2s3.9,0.7,5.1,2.2
		c1.2,1.5,1.8,3.7,1.8,6.5s-0.6,5.1-1.8,6.6C55.2,49.2,53.5,49.9,51.2,49.9z"/>
	<path class="st0" d="M67.6,31.6l-7,19h1l2.4-6.3h8.4l2.3,6.3h1l-7-19H67.6z M64.3,43.3l3.8-10.4L72,43.3L64.3,43.3L64.3,43.3z"/>
	<path class="st0" d="M81.7,31.6h-3.3v19h3.3c3.1,0,5.6-0.9,7.3-2.5c1.7-1.7,2.6-4.1,2.6-7.2c0-3-0.8-5.3-2.5-6.9
		C87.3,32.4,84.9,31.6,81.7,31.6z M81.7,49.6h-2.3V32.6h2.3c6,0,8.9,2.7,8.9,8.3c0,2.9-0.8,5.1-2.3,6.6
		C86.8,48.9,84.6,49.6,81.7,49.6z"/>
	<rect x="95.6" y="31.6" class="st0" width="1" height="19"/>
	<polygon class="st0" points="113.6,49.1 102.8,31.6 101.7,31.6 101.7,50.6 102.6,50.6 102.6,33 113.4,50.6 114.6,50.6 114.6,31.6 
		113.6,31.6 	"/>
	<path class="st0" d="M123.7,39.7v1h7.1V49c-1.5,0.6-3.2,0.9-4.9,0.9c-2.2,0-4.1-0.8-5.4-2.4c-1.3-1.6-2-3.8-2-6.4
		c0-2.7,0.7-4.8,2.1-6.4c1.4-1.6,3.2-2.4,5.5-2.4c1.6,0,3,0.2,4.3,0.7l0.5,0.2v-1l-0.2-0.1c-1.4-0.5-3-0.8-4.5-0.8
		c-2.6,0-4.7,0.9-6.2,2.7c-1.6,1.7-2.4,4.1-2.4,7.1c0,3,0.8,5.4,2.3,7.1c1.5,1.7,3.6,2.6,6,2.6c2.1,0,3.9-0.4,5.6-1.1l0.2-0.1v-9.9
		L123.7,39.7L123.7,39.7z"/>
	<polygon class="st1" points="39.1,48.4 28.3,48.4 28.3,29.4 29.2,29.4 29.2,47.5 39.1,47.5 	"/>
	<path class="st1" d="M49.4,48.6c-2.5,0-4.4-0.9-5.8-2.6c-1.4-1.7-2.1-4.1-2.1-7.2c0-3.1,0.7-5.5,2-7.2c1.4-1.7,3.3-2.6,5.8-2.6
		s4.4,0.9,5.8,2.6c1.3,1.7,2,4.1,2,7.2s-0.7,5.5-2,7.1C53.8,47.8,51.8,48.6,49.4,48.6z M49.4,30.1c-2.2,0-3.9,0.7-5.1,2.2
		c-1.2,1.5-1.8,3.7-1.8,6.5s0.6,5.1,1.8,6.6c1.2,1.5,2.9,2.2,5.1,2.2c2.2,0,3.9-0.7,5.1-2.2l0,0c1.2-1.5,1.8-3.7,1.8-6.6
		c0-2.8-0.6-5-1.8-6.5C53.3,30.9,51.6,30.1,49.4,30.1z"/>
	<path class="st1" d="M73.8,48.4h-1l-2.3-6.3h-8.4l-2.4,6.3h-1l7-19h1.1L73.8,48.4z M62.4,41.1h7.7l-3.8-10.4L62.4,41.1z"/>
	<path class="st1" d="M79.8,48.4h-3.3v-19h3.3c3.2,0,5.7,0.8,7.3,2.4c1.7,1.6,2.5,3.9,2.5,6.9c0,3.1-0.9,5.5-2.6,7.2
		C85.4,47.5,82.9,48.4,79.8,48.4z M77.5,47.5h2.3c2.9,0,5.2-0.8,6.7-2.2l0,0c1.5-1.5,2.3-3.7,2.3-6.6c0-5.6-2.9-8.3-8.9-8.3h-2.3
		V47.5L77.5,47.5z"/>
	<rect x="93.7" y="29.4" class="st1" width="1" height="19"/>
	<polygon class="st1" points="112.7,48.4 111.5,48.4 100.8,30.9 100.8,48.4 99.8,48.4 99.8,29.4 101,29.4 111.7,47 111.7,29.4 
		112.7,29.4 	"/>
	<path class="st1" d="M124,48.6c-2.5,0-4.5-0.9-6-2.6c-1.5-1.7-2.3-4.1-2.3-7.1c0-2.9,0.8-5.3,2.4-7.1c1.6-1.8,3.7-2.7,6.2-2.7
		c1.6,0,3.1,0.3,4.5,0.8l0.2,0.1v1l-0.5-0.2c-1.3-0.5-2.7-0.7-4.3-0.7c-2.3,0-4.2,0.8-5.5,2.4c-1.4,1.6-2.1,3.7-2.1,6.4
		c0,2.7,0.7,4.8,2,6.4c1.3,1.6,3.1,2.4,5.4,2.4c1.7,0,3.3-0.3,4.9-0.9v-8.3h-7.1v-1h8v9.9l-0.2,0.1C128,48.3,126.1,48.6,124,48.6z"
		/>
</g>
</svg>
