<svg version="1.1" xmlns="http://www.w3.org/2000/svg" xmlns:xlink="http://www.w3.org/1999/xlink" x="0px" y="0px"
	 viewBox="0 0 256 256" style="enable-background:new 0 0 256 256;" xml:space="preserve">
<style type="text/css">
	.st0{fill:#7E39E8;}
	.st1{fill:#FFFFFF;}
	.st2{fill:#020202;stroke:#7E39E8;stroke-width:15;stroke-miterlimit:10;}
</style>
<path class="st0" d="M15.8,30.2L208.9,3c8.2-1.2,15.8,4.6,16.9,12.8L253,208.9c1.2,8.2-4.6,15.8-12.8,16.9L47.1,253
	c-8.2,1.2-15.8-4.6-16.9-12.8L3,47.1C1.9,38.9,7.6,31.3,15.8,30.2z"/>
<path class="st1" d="M30.5,40.5h195c8.3,0,15,6.7,15,15v145c0,8.3-6.7,15-15,15h-195c-8.3,0-15-6.7-15-15v-145
	C15.5,47.2,22.2,40.5,30.5,40.5z"/>
<circle class="st2" cx="128" cy="128" r="67.1"/>
<path class="st1" d="M82.5,124.6c4.8-28.1,30.8-47.1,58-42.4l0,0c-2.6-1-5.2-1.7-8-2.2c-24.3-4.2-47.6,12.8-51.9,37.9
	c-1.3,7.8-0.7,15.5,1.5,22.4C81.5,135.2,81.6,129.9,82.5,124.6z"/>
</svg>
